<svg width="426" height="570" viewBox="0 0 426 570" fill="none" xmlns="http://www.w3.org/2000/svg">
<g clip-path="url(#clip0_7995_118131)">
<path d="M266.557 350.447C262.337 351.356 257.98 351.418 253.737 350.631C249.495 349.844 245.451 348.223 241.84 345.861L72.0189 235.45C64.7262 230.698 59.6178 223.244 57.8148 214.722C56.0118 206.2 57.6614 197.307 62.4016 189.995L172.879 19.9299C175.231 16.3079 178.272 13.1843 181.829 10.7378C185.386 8.29129 189.389 6.56971 193.609 5.67146C197.83 4.77322 202.185 4.71592 206.427 5.50284C210.668 6.28975 214.711 7.90546 218.327 10.2576L388.165 120.666C391.781 123.014 394.898 126.053 397.339 129.609C399.78 133.164 401.496 137.168 402.389 141.389C403.282 145.61 403.335 149.967 402.545 154.211C401.754 158.455 400.136 162.501 397.782 166.12L287.288 336.189C284.945 339.819 281.907 342.948 278.349 345.396C274.79 347.843 270.782 349.56 266.557 350.447" fill="#E1F2FF"/>
<path d="M251.737 566.251C235.59 569.745 218.791 568.622 203.26 563.009C187.73 557.397 174.096 547.521 163.918 534.513C156.183 524.685 146.173 516.89 134.752 511.798C123.331 506.706 110.842 504.471 98.3598 505.285C81.8876 506.367 65.4461 502.815 50.8951 495.03C36.3441 487.246 24.2644 475.539 16.0225 461.235C7.78054 446.931 3.70533 430.601 4.25785 414.091C4.81037 397.581 9.96857 381.551 19.1489 367.814C26.1062 357.407 30.4298 345.464 31.7466 333.017C33.0634 320.57 31.3339 307.992 26.7073 296.369C20.6054 281.024 18.9172 264.273 21.8335 248.01C24.7497 231.747 32.1542 216.621 43.2095 204.341C54.2648 192.062 68.5299 183.12 84.3914 178.526C100.253 173.932 117.078 173.87 132.964 178.346C144.999 181.748 157.683 182.165 169.921 179.56C182.158 176.956 193.581 171.409 203.201 163.399C215.905 152.837 231.306 146.041 247.661 143.779C264.015 141.516 280.672 143.877 295.747 150.596C310.822 157.314 323.713 168.121 332.964 181.795C342.214 195.469 347.454 211.464 348.091 227.971C348.576 240.476 352.091 252.672 358.334 263.509C364.577 274.347 373.361 283.5 383.929 290.181C397.88 298.995 409.085 311.543 416.275 326.405C423.466 341.267 426.354 357.85 424.615 374.278C422.875 390.706 416.577 406.324 406.432 419.364C396.287 432.405 382.701 442.348 367.21 448.068C355.474 452.408 344.966 459.537 336.591 468.842C328.216 478.147 322.226 489.348 319.136 501.48C315.103 517.512 306.643 532.089 294.724 543.544C282.804 554.998 267.908 562.867 251.737 566.251V566.251ZM92.6471 187.85C76.7566 191.297 62.3777 199.735 51.6083 211.931C41.8101 222.546 35.2469 235.74 32.6926 249.958C30.1383 264.176 31.6996 278.824 37.1922 292.175C42.4967 305.504 44.4799 319.927 42.9708 334.2C41.4617 348.473 36.5055 362.168 28.5299 374.103C20.5247 386.091 16.0308 400.08 15.5569 414.485C15.083 428.889 18.6479 443.135 25.8483 455.61C33.0486 468.085 43.5968 478.29 56.2987 485.07C69.0006 491.85 83.349 494.934 97.7197 493.974C112.032 493.041 126.354 495.603 139.451 501.439C152.548 507.276 164.028 516.212 172.902 527.478C181.807 538.787 193.699 547.373 207.233 552.266C220.767 557.16 235.402 558.165 249.484 555.168C263.567 552.171 276.534 545.291 286.92 535.307C297.306 525.323 304.696 512.633 308.254 498.672V498.672C311.806 484.764 318.679 471.924 328.284 461.256C337.888 450.589 349.936 442.413 363.391 437.433C376.9 432.443 388.747 423.77 397.593 412.397C406.439 401.024 411.931 387.404 413.448 373.077C414.964 358.75 412.445 344.288 406.175 331.327C399.906 318.366 390.135 307.423 377.969 299.735C365.848 292.077 355.773 281.581 348.615 269.152C341.456 256.724 337.428 242.736 336.878 228.396C336.302 214.014 331.718 200.083 323.646 188.177C315.573 176.272 304.332 166.865 291.194 161.02C278.055 155.175 263.541 153.124 249.291 155.099C235.041 157.074 221.623 162.996 210.552 172.196C199.517 181.377 186.419 187.735 172.386 190.722C158.354 193.708 143.809 193.233 130.008 189.338C117.906 185.884 105.143 185.432 92.8216 188.02" fill="#0B3558"/>
<path d="M374.917 283.496C366.846 276.595 360.289 268.097 355.658 258.536C351.028 248.975 348.423 238.557 348.008 227.937C347.371 211.433 342.132 195.441 332.882 181.769C323.633 168.098 310.743 157.293 295.671 150.576C280.598 143.859 263.943 141.498 247.591 143.76C231.238 146.022 215.84 152.817 203.137 163.376C193.518 171.385 182.097 176.931 169.862 179.535C157.626 182.139 144.943 181.722 132.91 178.321C110.573 171.963 86.6202 174.704 66.278 185.948L77.1353 193.006C82.0838 190.714 87.2697 188.976 92.5985 187.823C104.918 185.235 117.679 185.687 129.779 189.141C143.579 193.035 158.122 193.51 172.152 190.524C186.183 187.538 199.28 181.181 210.313 172.002C221.39 162.792 234.818 156.865 249.079 154.891C263.339 152.917 277.864 154.976 291.008 160.834C304.153 166.691 315.394 176.115 323.459 188.038C331.524 199.961 336.092 213.908 336.646 228.301C337.125 240.738 340.221 252.932 345.733 264.085C351.244 275.239 359.047 285.1 368.63 293.025L374.917 283.496Z" fill="#006BFF"/>
</g>
<defs>
<clipPath id="clip0_7995_118131">
<rect width="426" height="570" fill="white"/>
</clipPath>
</defs>
</svg>
